<?xml version="1.0" standalone="no"?>
<!DOCTYPE svg PUBLIC "-//W3C//DTD SVG 20010904//EN"
 "http://www.w3.org/TR/2001/REC-SVG-20010904/DTD/svg10.dtd">
<svg version="1.0" xmlns="http://www.w3.org/2000/svg"
 width="512.000000pt" height="512.000000pt" viewBox="0 0 512.000000 512.000000"
 preserveAspectRatio="xMidYMid meet">

<g transform="translate(0.000000,512.000000) scale(0.100000,-0.100000)"
fill="#000000" stroke="none">
<path d="M2430 5023 c-295 -30 -570 -96 -644 -154 -28 -22 -34 -60 -12 -78 22
-19 167 -31 371 -31 318 0 719 -36 887 -79 253 -65 312 -184 204 -407 -95
-197 -218 -357 -466 -605 -225 -226 -400 -376 -724 -621 -61 -46 -112 -89
-114 -95 -13 -43 82 -14 348 104 812 362 1395 915 1481 1407 39 228 -91 392
-382 480 -203 62 -406 86 -694 84 -121 0 -236 -3 -255 -5z"/>
<path d="M3940 3339 c-378 -31 -687 -185 -756 -376 -18 -52 -17 -168 2 -234
23 -75 76 -179 146 -280 59 -87 146 -193 382 -465 271 -313 463 -567 522 -689
53 -108 44 -184 -28 -238 -116 -87 -527 -132 -1318 -146 -332 -6 -421 -10
-445 -22 -35 -17 -44 -52 -20 -79 21 -24 159 -74 256 -94 315 -64 932 -103
1237 -77 334 29 593 118 739 254 181 169 163 377 -62 707 -100 147 -260 357
-569 745 -307 385 -346 442 -346 499 0 55 25 88 93 119 157 74 535 117 1029
117 108 0 220 5 248 11 95 20 86 77 -21 132 -177 90 -715 147 -1089 116z"/>
<path d="M1420 2674 c-306 -36 -471 -66 -612 -110 -140 -44 -193 -80 -186
-126 7 -50 26 -52 528 -59 336 -5 500 -11 592 -23 357 -45 520 -114 575 -243
64 -155 -86 -491 -356 -792 -219 -245 -597 -513 -1012 -716 -113 -56 -148 -68
-200 -72 -59 -5 -66 -3 -88 20 -20 22 -23 34 -19 74 7 74 150 351 484 938 239
421 246 439 208 493 -48 68 -183 -31 -352 -259 -181 -245 -464 -713 -744
-1229 -238 -439 -252 -471 -209 -485 72 -22 512 100 868 241 733 290 1317 690
1644 1125 153 204 279 464 310 642 50 291 -174 462 -731 558 -103 18 -173 22
-395 24 -148 2 -286 1 -305 -1z"/>
</g>
</svg>
