<?xml version="1.0" standalone="no"?>
<!DOCTYPE svg PUBLIC "-//W3C//DTD SVG 20010904//EN"
 "http://www.w3.org/TR/2001/REC-SVG-20010904/DTD/svg10.dtd">
<svg version="1.0" xmlns="http://www.w3.org/2000/svg"
 width="1600.000000pt" height="1200.000000pt" viewBox="0 0 1600.000000 1200.000000"
 preserveAspectRatio="xMidYMid meet">

<g transform="translate(0.000000,1200.000000) scale(0.100000,-0.100000)"
fill="#000000" stroke="none">
<path d="M7660 11399 c-1151 -72 -2236 -507 -3140 -1259 -161 -134 -526 -499
-660 -660 -691 -831 -1117 -1819 -1234 -2865 -168 -1493 268 -2944 1234 -4105
134 -161 499 -526 660 -660 830 -690 1813 -1114 2865 -1234 1620 -186 3227
362 4392 1498 456 444 793 904 1074 1466 895 1790 724 3939 -444 5568 -538
750 -1288 1373 -2115 1756 -825 382 -1729 552 -2632 495z m1650 -2139 c440
-24 704 -84 985 -222 401 -199 698 -548 844 -993 76 -233 104 -421 121 -810
16 -347 8 -2504 -9 -2690 -48 -529 -179 -875 -449 -1189 -267 -310 -649 -508
-1117 -580 -251 -38 -364 -41 -1685 -41 -1318 0 -1426 3 -1685 41 -647 95
-1140 450 -1387 999 -112 250 -168 521 -188 915 -28 539 -21 2432 10 2790 23
263 69 472 146 669 90 229 196 392 369 567 173 175 344 290 560 377 311 125
544 161 1147 177 385 11 2101 3 2338 -10z"/>
<path d="M6920 8684 c-206 -8 -443 -26 -530 -39 -197 -32 -381 -96 -516 -180
-89 -56 -225 -182 -294 -274 -101 -133 -184 -343 -220 -557 -40 -232 -45 -422
-45 -1634 0 -1217 5 -1403 46 -1636 95 -550 418 -886 954 -993 257 -51 712
-65 1919 -58 917 5 1161 13 1361 42 188 28 388 96 520 176 157 95 314 267 395
434 159 324 180 567 180 2035 0 772 -10 1244 -31 1470 -35 387 -154 663 -374
868 -218 204 -484 300 -916 333 -141 10 -2218 21 -2449 13z m2924 -559 c115
-30 203 -105 256 -217 69 -147 38 -321 -79 -437 -86 -87 -206 -126 -336 -109
-210 28 -366 244 -325 451 45 231 261 370 484 312z m-1520 -474 c334 -68 616
-220 862 -465 341 -341 509 -771 491 -1251 -35 -881 -731 -1577 -1612 -1612
-587 -23 -1138 257 -1460 742 -181 272 -271 550 -282 873 -11 316 46 570 192
850 154 296 424 560 725 712 166 83 336 138 512 165 140 21 432 14 572 -14z"/>
<path d="M7875 7089 c-507 -56 -913 -470 -965 -985 -33 -323 80 -635 314 -870
153 -152 303 -240 508 -296 72 -20 106 -22 268 -22 205 0 260 10 425 78 258
105 494 348 593 609 59 157 75 258 69 437 -6 175 -23 255 -86 399 -56 130
-122 224 -240 341 -118 116 -225 187 -365 241 -158 61 -356 87 -521 68z"/>
</g>
</svg>
