<?xml version="1.0" standalone="no"?>
<!DOCTYPE svg PUBLIC "-//W3C//DTD SVG 20010904//EN"
 "http://www.w3.org/TR/2001/REC-SVG-20010904/DTD/svg10.dtd">
<svg version="1.0" xmlns="http://www.w3.org/2000/svg"
 width="256.000000pt" height="256.000000pt" viewBox="0 0 256.000000 256.000000"
 preserveAspectRatio="xMidYMid meet">

<g transform="translate(0.000000,256.000000) scale(0.100000,-0.100000)"
fill="#000000" stroke="none">
<path d="M320 1280 l0 -960 960 0 960 0 0 960 0 960 -960 0 -960 0 0 -960z
m1760 0 l0 -800 -800 0 -800 0 0 800 0 800 800 0 800 0 0 -800z"/>
<path d="M800 1280 l0 -400 80 0 80 0 0 160 0 160 53 0 c28 0 69 5 90 11 43
12 107 70 128 117 8 19 21 32 31 32 15 0 18 9 18 56 0 87 -18 133 -75 189 -65
66 -99 75 -269 75 l-136 0 0 -400z m295 215 c33 -32 33 -78 0 -110 -20 -21
-34 -25 -80 -25 l-55 0 0 80 0 80 55 0 c46 0 60 -4 80 -25z"/>
<path d="M1360 1200 l0 -320 79 0 80 0 3 189 c3 173 5 192 24 217 39 53 70 68
144 72 l70 4 0 79 0 79 -58 0 c-52 0 -110 -12 -164 -35 -14 -5 -18 -2 -18 14
0 20 -5 21 -80 21 l-80 0 0 -320z"/>
</g>
</svg>
