<?xml version="1.0" standalone="no"?>
<!DOCTYPE svg PUBLIC "-//W3C//DTD SVG 20010904//EN"
 "http://www.w3.org/TR/2001/REC-SVG-20010904/DTD/svg10.dtd">
<svg version="1.0" xmlns="http://www.w3.org/2000/svg"
 width="1000.000000pt" height="1000.000000pt" viewBox="0 0 1000.000000 1000.000000"
 preserveAspectRatio="xMidYMid meet">

<g transform="translate(0.000000,1000.000000) scale(0.100000,-0.100000)"
fill="#000000" stroke="none">
<path d="M4655 9989 c-1012 -72 -1976 -447 -2773 -1081 -445 -353 -836 -796
-1143 -1293 -111 -179 -283 -516 -363 -710 -500 -1219 -500 -2591 0 -3810 32
-77 105 -234 164 -350 1007 -1995 3214 -3077 5410 -2654 1371 264 2571 1095
3310 2292 112 182 284 518 364 712 500 1219 500 2591 0 3810 -80 194 -252 531
-363 710 -493 798 -1175 1426 -2006 1845 -244 124 -421 198 -665 280 -611 206
-1297 294 -1935 249z m2003 -1948 c26 -13 121 -38 174 -46 26 -3 68 -17 95
-30 26 -14 56 -25 65 -25 10 0 41 -11 70 -24 29 -14 60 -27 68 -31 8 -3 35
-19 60 -35 25 -16 59 -36 77 -45 17 -9 39 -25 49 -36 9 -10 22 -19 28 -19 6 0
49 -38 96 -85 84 -84 85 -85 135 -85 28 0 75 6 105 14 30 7 71 16 91 20 20 3
59 18 87 31 29 14 56 25 62 25 6 0 18 4 28 9 66 33 117 51 145 51 18 0 64 16
101 35 38 19 76 35 85 35 21 0 108 46 144 76 28 24 87 33 87 14 0 -13 -29 -66
-57 -107 -13 -17 -23 -39 -23 -48 0 -9 -8 -29 -19 -43 -10 -15 -30 -49 -45
-77 -35 -65 -85 -135 -97 -135 -5 0 -9 -6 -9 -13 0 -18 -243 -255 -300 -293
-33 -22 -45 -36 -45 -54 0 -22 5 -25 42 -28 24 -2 57 3 75 12 51 22 98 34 163
41 33 4 69 10 80 15 36 15 119 38 165 46 25 3 79 22 120 42 117 55 118 55 137
48 17 -7 16 -9 -4 -26 -13 -10 -23 -21 -23 -25 0 -4 -15 -24 -32 -44 -18 -21
-43 -50 -56 -67 -88 -113 -290 -334 -307 -334 -6 0 -35 -25 -65 -56 -30 -31
-99 -92 -153 -136 l-99 -80 7 -47 c22 -142 -13 -691 -48 -771 -3 -8 -11 -51
-16 -95 -14 -115 -31 -199 -42 -209 -5 -6 -9 -29 -9 -52 0 -24 -4 -45 -9 -48
-4 -3 -11 -28 -15 -55 -4 -28 -11 -53 -16 -56 -5 -3 -12 -28 -16 -56 -4 -27
-11 -52 -15 -55 -5 -3 -9 -14 -9 -26 0 -11 -7 -36 -16 -56 -9 -21 -22 -52 -30
-70 -8 -18 -14 -47 -14 -65 0 -18 -11 -49 -25 -69 -14 -20 -25 -46 -25 -57 0
-21 -18 -68 -51 -132 -11 -20 -19 -42 -19 -48 0 -12 -177 -369 -224 -451 -14
-25 -32 -59 -41 -77 -9 -17 -25 -39 -36 -49 -10 -9 -19 -21 -19 -26 0 -13
-186 -292 -205 -308 -8 -7 -15 -17 -15 -23 0 -5 -19 -31 -42 -57 -24 -25 -52
-60 -63 -76 -33 -48 -142 -166 -302 -327 -185 -186 -270 -261 -468 -412 -98
-75 -329 -223 -410 -263 -27 -13 -59 -32 -70 -42 -11 -9 -33 -20 -50 -24 -16
-4 -47 -18 -67 -32 -21 -13 -38 -22 -38 -19 0 3 -35 -13 -78 -35 -43 -22 -81
-40 -85 -40 -3 0 -34 -13 -69 -29 -35 -16 -94 -41 -133 -56 -38 -16 -74 -31
-80 -35 -5 -4 -32 -11 -59 -15 -44 -6 -88 -21 -138 -46 -10 -5 -27 -9 -38 -9
-11 0 -28 -4 -38 -9 -15 -8 -93 -29 -197 -53 -22 -5 -73 -13 -113 -18 -40 -5
-79 -13 -85 -18 -15 -12 -58 -19 -217 -37 -69 -7 -163 -18 -210 -24 -220 -26
-648 -22 -960 9 -128 13 -288 43 -319 59 -11 6 -40 11 -65 11 -26 0 -54 4 -64
9 -27 14 -124 40 -175 47 -26 4 -50 11 -53 15 -3 5 -16 9 -29 9 -14 0 -41 9
-60 20 -20 11 -60 25 -88 31 -29 5 -70 17 -92 26 -22 8 -49 19 -60 23 -11 4
-36 15 -55 23 -19 8 -46 18 -60 22 -25 7 -311 145 -340 164 -8 5 -45 23 -82
40 -65 29 -116 61 -166 105 l-24 21 24 6 c13 3 30 3 38 0 23 -10 579 6 593 17
7 5 46 12 87 16 68 6 129 21 155 38 6 3 44 9 85 13 71 6 154 29 174 47 6 4 20
8 32 8 13 0 25 4 28 9 3 4 23 11 45 15 21 3 68 19 103 36 34 16 69 30 76 30
19 0 272 127 297 149 33 28 100 71 111 71 6 0 19 9 29 20 10 11 23 20 29 20 7
0 27 13 46 30 19 16 40 30 45 30 17 2 117 74 129 92 20 33 -7 43 -147 49 -87
4 -144 11 -167 21 -45 20 -83 33 -144 49 -26 7 -62 23 -78 37 -16 14 -44 33
-61 42 -18 10 -57 31 -87 47 -30 16 -91 53 -135 83 -44 29 -104 69 -134 89
-29 20 -66 52 -82 71 -41 50 -74 89 -109 131 -16 20 -30 40 -30 43 0 4 -11 22
-24 39 -36 49 -81 137 -101 197 -10 30 -23 62 -29 70 -18 22 -36 89 -29 107 9
23 42 31 92 21 46 -9 477 -2 493 8 4 3 8 14 8 24 0 13 -10 20 -32 25 -39 8
-127 35 -148 45 -9 4 -31 11 -50 15 -18 4 -47 16 -64 26 -17 10 -49 28 -70 40
-21 11 -61 36 -87 55 -27 19 -52 34 -57 34 -4 0 -14 9 -22 20 -8 11 -18 20
-23 20 -25 0 -146 114 -197 186 -19 27 -42 56 -50 64 -32 31 -140 179 -140
192 0 4 -11 24 -25 44 -14 20 -25 45 -25 54 0 10 -9 29 -21 44 -11 14 -32 62
-45 106 -14 43 -29 82 -34 85 -5 3 -12 27 -15 53 -6 52 -25 122 -36 137 -4 6
-10 51 -13 100 -4 50 -9 107 -12 128 -5 32 -3 37 15 37 11 0 47 -13 79 -30 33
-16 65 -30 71 -30 7 0 26 -7 44 -16 19 -11 63 -18 111 -20 74 -3 157 -22 198
-45 27 -14 128 -12 128 4 -1 6 -26 30 -57 52 -68 49 -228 215 -248 258 -23 48
-40 75 -62 100 -31 35 -78 109 -92 147 -7 19 -23 55 -36 80 -13 25 -30 72 -40
105 -9 33 -23 70 -31 82 -7 12 -18 59 -23 105 -5 46 -15 101 -22 123 -16 50
-24 381 -10 410 10 21 16 49 32 158 5 38 16 79 25 92 8 12 23 52 33 88 11 36
29 78 41 94 11 16 27 47 35 69 7 21 20 40 27 42 8 2 30 -16 49 -38 19 -23 127
-135 240 -248 183 -184 247 -243 353 -325 17 -12 48 -38 70 -57 23 -20 75 -59
116 -86 41 -28 105 -71 142 -97 37 -26 71 -47 76 -47 5 0 17 -9 27 -20 10 -11
22 -20 26 -20 5 0 39 -19 76 -43 38 -24 75 -46 83 -50 8 -4 38 -20 65 -37 28
-17 61 -35 75 -41 14 -7 60 -29 103 -50 43 -22 82 -39 87 -39 5 0 26 -11 46
-25 20 -14 45 -25 55 -25 10 0 47 -13 82 -30 36 -16 72 -30 81 -30 9 0 24 -4
34 -9 34 -18 118 -49 162 -61 25 -7 79 -23 120 -36 41 -13 89 -28 105 -33 17
-6 56 -14 88 -20 31 -6 66 -15 76 -21 11 -5 31 -10 45 -10 14 0 27 -4 30 -9 3
-4 56 -11 118 -15 61 -4 120 -12 131 -18 10 -5 51 -10 90 -10 39 0 81 -4 93
-8 13 -5 65 -10 115 -11 86 -1 94 0 111 21 11 14 16 30 12 39 -4 9 -9 31 -12
49 -2 18 -8 35 -13 38 -12 7 -12 187 0 200 8 8 18 130 20 241 0 17 5 34 11 38
5 3 10 24 10 45 0 21 4 41 9 44 5 3 12 23 15 43 4 21 14 61 23 88 20 63 131
291 149 306 8 6 14 16 14 21 0 5 5 14 11 21 5 7 28 39 49 73 38 58 289 314
309 314 11 0 69 36 111 68 40 31 224 122 245 122 11 0 41 11 66 24 25 14 70
28 100 32 30 4 69 13 88 20 18 8 43 14 55 14 12 0 26 4 32 9 5 6 36 12 69 14
91 7 373 -2 393 -12z"/>
</g>
</svg>
