<?xml version="1.0" standalone="no"?>
<!DOCTYPE svg PUBLIC "-//W3C//DTD SVG 20010904//EN"
 "http://www.w3.org/TR/2001/REC-SVG-20010904/DTD/svg10.dtd">
<svg version="1.0" xmlns="http://www.w3.org/2000/svg"
 width="284.000000pt" height="177.000000pt" viewBox="0 0 284.000000 177.000000"
 preserveAspectRatio="xMidYMid meet">

<g transform="translate(0.000000,177.000000) scale(0.100000,-0.100000)"
fill="#000000" stroke="none">
<path d="M1315 1760 c-109 -13 -182 -36 -290 -90 -304 -152 -485 -445 -485
-786 0 -245 82 -446 255 -620 184 -186 411 -274 670 -261 372 19 684 257 799
611 157 481 -133 1000 -629 1126 -87 22 -228 31 -320 20z m290 -155 c33 -8
103 -36 155 -62 80 -39 109 -60 185 -137 103 -103 158 -196 197 -332 34 -118
31 -287 -7 -404 -32 -101 -70 -173 -135 -255 -75 -94 -209 -191 -318 -229
l-42 -15 0 90 c0 91 -14 145 -46 180 -14 16 -11 18 43 29 146 31 249 100 291
198 61 142 48 336 -28 417 -16 18 -17 26 -8 68 13 54 -2 165 -24 179 -20 13
-66 0 -154 -44 -79 -39 -83 -40 -133 -29 -67 14 -245 14 -311 0 -50 -11 -54
-10 -133 29 -45 23 -99 43 -119 47 l-37 6 -17 -58 c-14 -47 -15 -70 -7 -117 9
-57 8 -61 -22 -106 -46 -69 -61 -151 -47 -258 26 -192 125 -292 331 -333 49
-9 59 -14 46 -22 -35 -19 -55 -86 -55 -184 0 -51 -2 -93 -5 -93 -21 0 -138 57
-194 94 -136 91 -241 227 -297 387 -38 107 -45 291 -15 409 75 296 311 511
616 561 68 11 217 3 290 -16z"/>
</g>
</svg>
