<?xml version="1.0" standalone="no"?>
<!DOCTYPE svg PUBLIC "-//W3C//DTD SVG 20010904//EN"
 "http://www.w3.org/TR/2001/REC-SVG-20010904/DTD/svg10.dtd">
<svg version="1.0" xmlns="http://www.w3.org/2000/svg"
 width="1096.000000pt" height="1096.000000pt" viewBox="0 0 1096.000000 1096.000000"
 preserveAspectRatio="xMidYMid meet">

<g transform="translate(0.000000,1096.000000) scale(0.100000,-0.100000)"
fill="#000000" stroke="none">
<path d="M5215 10003 c-997 -81 -1930 -476 -2675 -1130 -851 -748 -1377 -1737
-1517 -2853 -26 -210 -26 -909 0 -1120 66 -524 198 -968 427 -1435 214 -436
471 -800 810 -1149 759 -781 1700 -1249 2780 -1383 183 -22 768 -25 955 -5
1048 116 2009 577 2754 1322 1320 1320 1707 3259 989 4960 -373 882 -1039
1649 -1866 2149 -550 332 -1160 542 -1822 627 -121 15 -712 28 -835 17z
m-1041 -1615 c8 -29 56 -201 106 -383 51 -181 95 -333 99 -337 4 -5 47 146 96
335 48 188 95 363 102 390 l14 47 190 0 c153 0 190 -3 186 -13 -3 -7 -33 -112
-66 -233 -34 -120 -95 -318 -136 -439 -156 -465 -198 -731 -193 -1225 2 -146
-1 -280 -5 -297 l-9 -33 -183 0 -183 0 -5 433 c-5 508 -4 507 -130 892 -80
246 -251 817 -262 878 l-7 37 185 0 186 0 15 -52z m1352 -529 c134 -43 241
-154 291 -302 l28 -82 0 -455 c0 -351 -3 -468 -14 -510 -56 -227 -222 -352
-464 -351 -248 1 -395 113 -442 336 -20 96 -30 596 -17 835 8 143 16 199 32
247 83 239 337 361 586 282z m884 -670 l0 -672 51 6 c61 8 107 34 134 79 18
30 20 48 17 183 -1 83 1 358 4 613 l6 462 167 -2 166 -3 3 -817 2 -817 -38
-11 c-161 -43 -233 -33 -300 44 l-30 35 -49 -31 c-213 -136 -367 -126 -444 30
l-24 47 -3 740 c-1 407 0 750 3 763 5 22 8 22 170 22 l165 0 0 -671z m1082
-1353 c291 -56 492 -243 570 -531 21 -78 22 -96 26 -932 4 -916 -2 -1098 -38
-1218 -37 -120 -87 -202 -175 -290 -113 -113 -244 -178 -415 -205 -42 -6 -715
-10 -1915 -10 -1824 -1 -1851 0 -1930 20 -221 55 -392 193 -490 395 -85 175
-80 96 -80 1185 l0 965 22 84 c76 285 279 478 563 536 100 20 3756 21 3862 1z"/>
<path d="M5327 7490 c-60 -52 -62 -64 -62 -486 0 -355 1 -382 19 -410 64 -101
169 -110 196 -17 8 26 10 174 8 460 -3 410 -4 422 -24 450 -32 43 -91 44 -137
3z"/>
<path d="M5870 5283 c-30 -1 -74 -5 -97 -9 l-43 -5 0 -1030 c0 -897 2 -1029
15 -1029 8 0 78 14 155 30 125 27 143 28 163 16 12 -8 58 -27 102 -41 179 -60
288 4 325 190 8 43 10 212 8 595 -5 606 -4 605 -83 686 -80 84 -190 85 -347 5
-55 -28 -102 -51 -104 -51 -2 0 -5 145 -6 322 -3 279 -5 323 -18 324 -8 0 -40
-1 -70 -3z m306 -762 c55 -33 67 -77 76 -266 13 -247 1 -728 -19 -777 -19 -47
-56 -68 -121 -68 -58 0 -106 28 -136 80 -20 34 -21 53 -24 447 -4 435 1 498
40 549 42 53 128 69 184 35z"/>
<path d="M3598 5153 c2 -65 6 -119 7 -121 3 -3 273 -31 308 -32 16 0 17 -49
17 -885 l0 -885 155 0 155 0 0 884 0 884 53 6 c28 3 84 8 122 11 39 3 85 8
103 11 l32 5 0 119 0 120 -478 0 -478 0 4 -117z"/>
<path d="M7085 4767 c-83 -21 -147 -57 -206 -117 -104 -103 -118 -183 -118
-655 -1 -465 15 -588 82 -677 78 -102 173 -143 332 -143 199 0 318 76 370 235
20 59 25 182 12 263 l-8 48 -101 -3 -102 -3 -22 -107 c-12 -59 -30 -121 -40
-137 -49 -83 -184 -75 -232 13 -14 26 -17 67 -20 247 l-4 217 169 7 c92 4 215
10 273 14 l105 6 0 235 c-1 212 -3 242 -22 305 -40 128 -107 201 -218 240 -65
22 -187 28 -250 12z m150 -257 c18 -11 40 -31 48 -44 20 -29 36 -119 39 -218
l3 -78 -141 0 -142 0 -7 80 c-10 114 0 174 38 217 32 37 77 62 111 63 10 0 33
-9 51 -20z"/>
<path d="M5136 4721 c-3 -5 -5 -258 -5 -563 1 -540 1 -557 -20 -602 -27 -62
-76 -85 -178 -86 l-73 0 0 625 0 625 -135 0 -135 0 0 -597 c1 -656 6 -763 40
-836 59 -126 191 -128 381 -7 44 27 83 50 87 50 4 0 21 -24 37 -53 31 -52 31
-52 85 -55 30 -2 79 -1 108 3 l52 6 0 750 0 749 -119 0 c-66 0 -122 -4 -125
-9z"/>
</g>
</svg>
