<?xml version="1.0" standalone="no"?>
<!DOCTYPE svg PUBLIC "-//W3C//DTD SVG 20010904//EN"
 "http://www.w3.org/TR/2001/REC-SVG-20010904/DTD/svg10.dtd">
<svg version="1.0" xmlns="http://www.w3.org/2000/svg"
 width="46.000000pt" height="45.000000pt" viewBox="0 0 46.000000 45.000000"
 preserveAspectRatio="xMidYMid meet">

<g transform="translate(0.000000,45.000000) scale(0.100000,-0.100000)"
fill="#000000" stroke="none">
<path d="M87 420 c-43 -10 -80 -20 -83 -23 -2 -2 0 -64 6 -138 5 -74 10 -140
10 -147 0 -6 47 -36 105 -64 l105 -53 104 52 104 52 6 68 c20 235 20 237 0
229 -47 -18 -73 -16 -149 13 -91 35 -101 36 -208 11z m349 -117 c-3 -16 -10
-57 -16 -92 -8 -58 -20 -80 -42 -81 -4 0 -11 18 -14 40 -8 51 -20 44 -28 -19
-4 -32 -12 -51 -23 -55 -22 -9 -24 -5 -39 76 -17 96 -17 95 6 101 16 4 20 0
20 -21 0 -15 5 -34 10 -42 8 -12 10 -9 10 12 0 85 58 108 61 25 0 -21 1 -21 9
-2 5 11 9 32 9 47 1 24 11 35 34 37 5 1 6 -11 3 -26z m-300 -2 c17 -11 36 -33
42 -51 11 -30 10 -31 -11 -24 -12 4 -24 11 -25 16 -7 18 -34 38 -44 32 -5 -3
13 -27 41 -53 43 -40 51 -53 51 -84 0 -44 -21 -58 -67 -45 -35 9 -83 60 -83
88 0 25 37 15 52 -14 18 -34 48 -48 48 -23 0 7 -20 31 -44 53 -48 43 -66 85
-46 109 17 20 49 19 86 -4z"/>
</g>
</svg>
